<svg xmlns="http://www.w3.org/2000/svg" xmlns:xlink="http://www.w3.org/1999/xlink" version="1.1" x="0px" y="0px" viewBox="0 0 1024 1280" style="enable-background:new 0 0 1024 1024;" xml:space="preserve"><g><g><path d="M899.7,161.3c-11.9-2.7-22.7-8.7-31.3-17.3c-8.6-8.6-14.6-19.5-17.3-31.3l-2.7-11.7h-24.5l-2.7,11.7    c-2.7,11.8-8.7,22.7-17.3,31.3c-8.6,8.6-19.5,14.6-31.3,17.3l-11.7,2.7v24.5l11.6,2.7c24,5.5,43.1,24.6,48.6,48.6l2.7,11.6h24.5    l2.7-11.7c2.7-11.8,8.7-22.7,17.3-31.3c8.6-8.6,19.5-14.6,31.3-17.3l11.6-2.7v-24.5L899.7,161.3z M847.2,187.2    c-4.1,4.1-7.8,8.5-11,13.3c-6.5-9.5-14.8-17.7-24.2-24.2c4.7-3.3,9.2-7,13.3-11.1c4.1-4.1,7.8-8.5,11-13.2    c3.2,4.7,6.9,9.1,11,13.2c4.1,4.1,8.5,7.8,13.2,11C855.7,179.4,851.3,183.1,847.2,187.2z"/><path d="M179.8,238.6h-24.1L153,227c-1.6-7-7.2-12.6-14.2-14.2l-11.6-2.7V186l11.7-2.7c3.5-0.8,6.6-2.5,9.1-5.1    c2.5-2.5,4.3-5.7,5.1-9.1l2.7-11.7h24.1l2.7,11.7c0.8,3.5,2.5,6.6,5.1,9.1c2.5,2.5,5.7,4.3,9.1,5l11.7,2.7v24.1l-11.7,2.7    c-3.5,0.8-6.6,2.5-9.1,5.1c-2.5,2.5-4.3,5.7-5.1,9.1L179.8,238.6z"/><path d="M539.9,523.7c-5.2-5.2-12.1-8-19.4-8H382.4c-15.1,0-27.4,12.3-27.4,27.4v236.8H548V543.1    C548,535.8,545.1,528.9,539.9,523.7z M385,749.9V545.7H518v204.2H385z"/><path d="M451.5,337.5c-31.9,0-57.9,26-57.9,57.9c0,31.9,26,57.9,57.9,57.9c31.9,0,57.9-26,57.9-57.9    C509.4,363.4,483.4,337.5,451.5,337.5z M451.5,423.2c-15.4,0-27.9-12.5-27.9-27.9s12.5-27.9,27.9-27.9c15.4,0,27.9,12.5,27.9,27.9    S466.9,423.2,451.5,423.2z"/><path d="M666,288.8L451.5,117.3l-361.2,289l60.7,65.4l25.9-20.7l0-38.4L154,430.8l-19.8-21.3l67-53.6l41.6-33.3l208.6-166.9    L666,327.3v37.1L451.5,192.8L322.7,295.9h0L186.6,404.8l-4.1,3.3l-5.6,4.5V451l24.4-19.5l1.1-0.9l0,0l2.6-2.1l1.9-1.5l244.6-195.7    L666,402.8v0l30,24V312.8L666,288.8z"/><polygon points="206.8,404.7 206.8,425.3 202.3,430.6 176.8,460.3 176.8,412.5 182.5,408 186.6,404.8 206.8,404.7   "/><path d="M666,364.4L451.5,192.8L322.7,295.9h0L186.6,404.8l-4.1,3.3l-5.6,4.5v47.8l0,319.6h416.6l4.3-7.8c0.6-1.1,1.2-2.2,1.8-3.3    c0.7-1.4,1.5-2.8,2.2-4.1c0.4-0.7,0.8-1.5,1.1-2.2c1.7-3.4,3.3-6.7,4.8-10.1c0.5-1,0.9-2,1.4-3c1.9-4.3,3.7-8.5,5.3-12.6    c0.3-0.9,0.7-1.7,1-2.6c2.8-7.1,5.1-13.8,7.1-20.1c0.2-0.6,0.4-1.2,0.6-1.8c0.4-1.3,0.8-2.7,1.2-4c0.3-0.9,0.5-1.7,0.8-2.5    c0-0.1,0.1-0.3,0.1-0.4c0.2-0.5,0.3-1,0.5-1.6c0.6-2.2,1.3-4.3,1.8-6.4c0.1-0.5,0.3-1,0.4-1.5c0.3-1,0.5-2,0.8-2.9    c0.2-0.7,0.3-1.3,0.5-2c0.6-2.3,1.1-4.5,1.5-6.4c1.4-6.2,2.2-10.4,2.4-12l4.4-18l5.7-23.1c0.3-1.1,1.2-1.8,2.3-1.8H696V388.4    L666,364.4z M666,599.8h-20.6c-15,0-27.9,10.1-31.5,24.7l-7.4,30.2l-2.8,11.4l-0.1,0.6l-0.1,0.7c0,0.1-0.2,1.2-0.6,3.3    c0,0.2-0.1,0.4-0.1,0.7c-0.3,1.6-0.7,3.6-1.3,6c-0.2,0.7-0.3,1.4-0.5,2.2c-0.4,1.6-0.8,3.4-1.3,5.3c-0.1,0.3-0.1,0.6-0.2,0.9    c-0.2,0.6-0.3,1.2-0.5,1.9c-0.1,0.4-0.2,0.9-0.3,1.3c-0.1,0.5-0.3,0.9-0.4,1.4c-0.5,1.8-1,3.8-1.6,5.7c-0.4,1.5-0.9,3-1.4,4.6    c0,0.1,0,0.2-0.1,0.2c-0.5,1.5-1,3-1.5,4.6c-0.1,0.2-0.1,0.4-0.2,0.6c-0.3,0.9-0.6,1.9-0.9,2.8c-0.2,0.6-0.4,1.1-0.6,1.7    c-0.2,0.5-0.3,1-0.5,1.6c-0.4,1.2-0.9,2.4-1.3,3.7c-0.2,0.6-0.4,1.2-0.6,1.8c-1.6,4.4-3.4,9-5.4,13.7c-0.2,0.5-0.4,1-0.7,1.6    c-0.9,2-1.8,4.1-2.7,6.2c-0.3,0.7-0.6,1.3-0.9,2c-0.3,0.7-0.6,1.4-1,2.1c-0.6,1.4-1.3,2.8-2,4.2c-0.3,0.7-0.7,1.4-1,2.1    c-0.1,0.2-0.2,0.4-0.3,0.6H206.8V427l244.6-195.7L666,402.8V599.8z"/><polygon points="206.8,425.3 206.8,425.3 202.3,430.6 202.3,430.6 176.8,460.3 176.8,412.5 182.5,408 186.6,404.8 206.8,404.7       "/><rect x="436.5" y="530.7" width="30" height="234.2"/><path d="M666,253.7v376.1h91.6V253.7H666z M696,599.8V283.7h31.6v316.1H696z"/><path d="M819.5,665.7C819.5,665.7,819.5,665.7,819.5,665.7l-10-41.1c-3.5-14.6-16.5-24.8-31.5-24.8H645.4    c-15,0-27.9,10.1-31.5,24.7l-7.4,30.2l-2.9,12l-4.4,18h225L819.5,665.7z M637.4,654.7l5.7-23.1c0.3-1.1,1.2-1.8,2.3-1.8H778    c1.1,0,2.1,0.8,2.3,1.8l5.6,23.1H637.4z"/><path d="M905.3,812.5c-53.3-45.4-83.6-140-85.8-146.7c0,0,0,0,0,0c-0.1-0.2-0.1-0.3-0.1-0.3l-3.2-10.6H618.3l-11.8,0h-1l-1.9,12    l-0.1,0.7c0,0.1-0.2,1.2-0.6,3.3c0,0.2-0.1,0.4-0.1,0.7c-0.3,1.6-0.7,3.6-1.3,6c-0.2,0.7-0.3,1.4-0.5,2.2    c-0.4,1.6-0.8,3.4-1.3,5.3c-0.1,0.3-0.1,0.6-0.2,0.9c-0.2,0.6-0.3,1.2-0.5,1.9c-0.1,0.4-0.2,0.9-0.3,1.3c-0.1,0.5-0.2,0.9-0.4,1.4    c-0.5,1.8-1,3.8-1.6,5.7c-0.4,1.5-0.9,3-1.4,4.6c0,0.1,0,0.2-0.1,0.2c-0.5,1.5-1,3-1.5,4.6c-0.1,0.2-0.1,0.4-0.2,0.6    c-0.3,0.9-0.6,1.9-0.9,2.8c-0.2,0.6-0.4,1.1-0.6,1.7c-0.2,0.5-0.3,1-0.5,1.6c-0.4,1.2-0.9,2.4-1.3,3.7c-0.2,0.6-0.4,1.2-0.6,1.8    c-1.6,4.4-3.4,9-5.4,13.7c-0.2,0.5-0.4,1-0.7,1.6c-0.9,2-1.8,4.1-2.7,6.2c-0.3,0.7-0.6,1.3-0.9,2c-0.3,0.7-0.6,1.4-1,2.1    c-0.6,1.4-1.3,2.8-2,4.2c-0.3,0.7-0.7,1.4-1,2.1c-0.1,0.2-0.2,0.4-0.3,0.6c-1.3,2.6-2.7,5.2-4.1,7.8c-4.3,7.9-8.9,15.3-13.8,22.2    c-15.3,21.9-33.1,38.8-53.1,50.3l-17.9,10.3l15.3,13.8c39.2,35.3,87.3,58.1,139.2,65.8l10.1,1.5l0.8-1.4l-0.4,1.8l17.4,0.8    c3.8,0.2,7.7,0.3,11.7,0.3c72.7,0,173.6-30.6,225.9-89.2l10.2-11.5L905.3,812.5z M843,847.3c-8.3,5.1-17.2,9.8-26.5,14.2    c-15.3,7.2-31.7,13.4-48.6,18.4c-9.7,2.9-19.6,5.3-29.6,7.3c-17.1,3.4-34.3,5.4-51.1,5.8c0.1-0.8,0.2-1.7,0.3-2.5    c0.1-0.9,0.2-1.7,0.3-2.5c0.2-1.5,0.3-3,0.4-4.5c0-0.3,0-0.6,0.1-0.8c0.2-2.1,0.3-4.2,0.5-6.2c0-0.6,0.1-1.1,0.1-1.7    c0.1-1.2,0.1-2.5,0.2-3.7c0-0.8,0.1-1.5,0.1-2.3c0-0.8,0-1.5,0.1-2.3v0c0-1.5,0.1-3,0.1-4.4c0-0.6,0-1.2,0-1.8v-0.3    c0-0.7,0-1.4,0-2.1c0.1-18.6-1.3-31.5-1.5-32.5l-10.8-92.5L658.4,824c-0.6,3.1-1.3,6.1-2.1,9.1c-0.1,0.6-0.3,1.2-0.5,1.8    c-0.4,1.5-0.8,3-1.2,4.5c-0.2,0.7-0.4,1.4-0.6,2c-1.9,6.4-4,12.5-6.1,18.2c-0.2,0.6-0.5,1.3-0.7,1.9c-0.4,1-0.8,2-1.2,3    c-0.3,0.9-0.7,1.8-1,2.6c-0.8,2-1.6,3.9-2.4,5.8c-0.2,0.4-0.4,0.9-0.6,1.3c-2.5,5.8-4.9,10.7-6.8,14.5    c-35.7-6.9-69.2-22-98.1-44.1c21.5-16.1,40.3-37.8,56.1-64.7c1.5-2.5,3-5.1,4.4-7.8c0.6-1.1,1.2-2.2,1.8-3.3    c0.7-1.4,1.5-2.8,2.2-4.1c0.4-0.7,0.8-1.5,1.1-2.2c1.7-3.4,3.3-6.7,4.8-10.1c0.5-1,0.9-2,1.4-3c1.9-4.3,3.7-8.5,5.3-12.6    c0.3-0.9,0.7-1.7,1-2.6c2.8-7.1,5.1-13.8,7.1-20.1c0.2-0.6,0.4-1.2,0.6-1.8c0.4-1.3,0.8-2.7,1.2-4c0.3-0.9,0.5-1.7,0.8-2.5    c0-0.1,0.1-0.3,0.1-0.4c0.2-0.5,0.3-1,0.5-1.6c0.6-2.2,1.3-4.3,1.8-6.4c0.1-0.5,0.3-1,0.4-1.5c0.3-1,0.5-2,0.8-2.9    c0.2-0.7,0.3-1.3,0.5-2c0.6-2.3,1.1-4.5,1.5-6.4h163.6c9.1,26.3,35.9,94.9,79.8,139.6C865.1,832.5,854.6,840.2,843,847.3z"/><path d="M656.4,912.8l-25.9-15.1c0.2-0.3,19.9-34.6,27.9-73.7l18.8-91.2l10.8,92.5c0.2,1.7,4.8,42.8-3.5,85.3    c0,0.1-0.1,0.3-0.1,0.4c0-0.1,0-0.2,0.1-0.3l-7.6-1.5l-17.1-2.7C657.9,910.2,656.6,912.4,656.4,912.8z"/><path d="M768.8,898.8l-30-0.2l15,0.1l-15-0.1c0-0.5,0-46.3-16.2-92l28.3-10.1C768.9,847.3,768.8,896.7,768.8,898.8z"/><path d="M825.1,875.6c-9.6-15.4-27.4-45.2-39.2-71.9l27.4-12.1c11.5,25.9,29.9,56.3,37.3,68.2L825.1,875.6z"/><path d="M899.4,457.8c-15.1,0-27.4,12.3-27.4,27.4c0,15.1,12.3,27.4,27.4,27.4s27.4-12.3,27.4-27.4    C926.8,470.1,914.5,457.8,899.4,457.8z M899.4,487.8c-1.4,0-2.6-1.2-2.6-2.6s1.2-2.6,2.6-2.6c1.4,0,2.6,1.2,2.6,2.6    S900.8,487.8,899.4,487.8z"/><path d="M249.8,844.5c-24.4,0-44.2,19.8-44.2,44.2c0,24.4,19.8,44.2,44.2,44.2c24.4,0,44.2-19.8,44.2-44.2    C294,864.4,274.1,844.5,249.8,844.5z M249.8,903c-7.8,0-14.2-6.4-14.2-14.2c0-7.8,6.4-14.2,14.2-14.2c7.8,0,14.2,6.4,14.2,14.2    C264,896.6,257.6,903,249.8,903z"/></g></g><text x="0" y="1039" fill="#000000" font-size="5px" font-weight="bold" font-family="'Helvetica Neue', Helvetica, Arial-Unicode, Arial, Sans-serif">Created by IconPai</text><text x="0" y="1044" fill="#000000" font-size="5px" font-weight="bold" font-family="'Helvetica Neue', Helvetica, Arial-Unicode, Arial, Sans-serif">from the Noun Project</text></svg>